<svg id="Grupo_3995" data-name="Grupo 3995" xmlns="http://www.w3.org/2000/svg" width="52" height="52" viewBox="0 0 52 52">
  <rect id="Rectángulo_2278" data-name="Rectángulo 2278" width="52" height="52" rx="8" fill="#f5b546"/>
  <path id="Icon_awesome-flag-usa" data-name="Icon awesome-flag-usa" d="M1.875,0A1.873,1.873,0,0,0,0,1.875V29.062A.94.94,0,0,0,.938,30H2.813a.94.94,0,0,0,.938-.937V1.875A1.873,1.873,0,0,0,1.875,0Zm15.7,17.789c-3.352-.885-6.545-1.687-11.947.65V22.5c10.881-5.4,12.99,3.123,23.291-1.354A1.839,1.839,0,0,0,30,19.459V17.349a17.754,17.754,0,0,1-6.568,1.412,22.314,22.314,0,0,1-5.859-.973Zm0-5.625c-3.352-.885-6.545-1.687-11.947.65v3.6c5.555-2.2,9.059-1.33,12.428-.445C21.4,16.857,24.6,17.66,30,15.322v-3.6a17.754,17.754,0,0,1-6.568,1.412A22.08,22.08,0,0,1,17.572,12.164Zm.557-7.377C21.164,5.7,23.836,6.486,30,3.609V1.8A1.9,1.9,0,0,0,27.105.246C17.068,5.361,17.895-3.645,5.625,1.9v8.9c5.555-2.2,9.059-1.33,12.428-.445C21.4,11.232,24.6,12.035,30,9.7V5.666a18.344,18.344,0,0,1-7.389,1.84,16.423,16.423,0,0,1-5.021-.932c-.234-.07-.475-.141-.709-.205V4.424C17.3,4.541,17.719,4.664,18.129,4.787ZM9.375,7.506a.938.938,0,1,1,.938-.937A.936.936,0,0,1,9.375,7.506Zm0-3.27a.937.937,0,1,1,.938-.937A.936.936,0,0,1,9.375,4.236Zm3.75,2.807a.938.938,0,1,1,.938-.937A.936.936,0,0,1,13.125,7.043Zm0-3.275a.938.938,0,1,1,.938-.937A.936.936,0,0,1,13.125,3.767Z" transform="translate(10.999 11.001)" fill="#fff"/>
</svg>
