<svg id="Grupo_3990" data-name="Grupo 3990" xmlns="http://www.w3.org/2000/svg" width="52" height="52" viewBox="0 0 52 52">
  <rect id="Rectángulo_2278" data-name="Rectángulo 2278" width="52" height="52" rx="8" fill="#f5b546"/>
  <path id="Icon_awesome-leaf" data-name="Icon awesome-leaf" d="M28.452.5A.81.81,0,0,0,26.978.442,8.932,8.932,0,0,1,19.169,5H15A10,10,0,0,0,5,15a10.3,10.3,0,0,0,.078,1.068A24.921,24.921,0,0,1,20,11.667a.833.833,0,0,1,0,1.667C6.908,13.334,1.355,21.361.126,24.377a1.669,1.669,0,0,0,3.089,1.266A13.7,13.7,0,0,1,6.96,20.923a9.979,9.979,0,0,0,9.11,4.021C24.248,24.351,30,17.017,30,8.037A18.941,18.941,0,0,0,28.452.5Z" transform="translate(10.996 12.665)" fill="#fff"/>
</svg>
