<svg xmlns="http://www.w3.org/2000/svg" width="52" height="52" viewBox="0 0 52 52">
  <g id="Grupo_3994" data-name="Grupo 3994" transform="translate(0.123)">
    <rect id="Rectángulo_2278" data-name="Rectángulo 2278" width="52" height="52" rx="8" transform="translate(-0.123)" fill="#f5b546"/>
    <g id="Icon_ionic-ios-ribbon" data-name="Icon ionic-ios-ribbon" transform="translate(12.281 10.25)">
      <path id="Trazado_4497" data-name="Trazado 4497" d="M17.923,20.63a9.185,9.185,0,0,0,9.26-9.267A9.324,9.324,0,0,0,18.077,2.25a9.185,9.185,0,0,0-9.26,9.267A9.324,9.324,0,0,0,17.923,20.63Zm-.26-14.351A5.172,5.172,0,1,1,12.846,11.1,5.173,5.173,0,0,1,17.663,6.279Z" transform="translate(-4.501 -2.25)" fill="#fff"/>
      <path id="Trazado_4498" data-name="Trazado 4498" d="M18,21.684a10.432,10.432,0,0,1-7.629-3.3.292.292,0,0,0-.464.049l-5.33,9.33a.578.578,0,0,0,.506.865h5.632a.581.581,0,0,1,.5.281l2.742,4.563a.582.582,0,0,0,1.027-.056l3.023-6.652,2.2-4.845a.287.287,0,0,0-.316-.4A11.2,11.2,0,0,1,18,21.684Z" transform="translate(-4.501 -2.25)" fill="#fff"/>
      <path id="Trazado_4499" data-name="Trazado 4499" d="M25.629,18.373a10.447,10.447,0,0,1-3.691,2.538.267.267,0,0,0-.155.148l-3.143,6.87a.284.284,0,0,0,0,.239l2.384,5.238a.582.582,0,0,0,1.027.056L24.792,28.9a.581.581,0,0,1,.5-.281h5.632a.581.581,0,0,0,.506-.865L26.1,18.415A.307.307,0,0,0,25.629,18.373Z" transform="translate(-4.501 -2.25)" fill="#fff"/>
    </g>
  </g>
</svg>
