<svg xmlns="http://www.w3.org/2000/svg" width="52" height="52" viewBox="0 0 52 52">
  <g id="Grupo_3991" data-name="Grupo 3991" transform="translate(0.051)">
    <rect id="Rectángulo_2278" data-name="Rectángulo 2278" width="52" height="52" rx="8" transform="translate(-0.051)" fill="#f5b546"/>
    <path id="Icon_awesome-shipping-fast" data-name="Icon awesome-shipping-fast" d="M29.25,16.5H28.5V11.433a2.25,2.25,0,0,0-.661-1.589L23.156,5.161A2.25,2.25,0,0,0,21.567,4.5H19.5V2.25A2.251,2.251,0,0,0,17.25,0h-12A2.251,2.251,0,0,0,3,2.25V4.5H.375A.376.376,0,0,0,0,4.875v.75A.376.376,0,0,0,.375,6h12.75a.376.376,0,0,1,.375.375v.75a.376.376,0,0,1-.375.375H1.875a.376.376,0,0,0-.375.375v.75A.376.376,0,0,0,1.875,9h9.75A.376.376,0,0,1,12,9.375v.75a.376.376,0,0,1-.375.375H.375A.376.376,0,0,0,0,10.875v.75A.376.376,0,0,0,.375,12h9.75a.376.376,0,0,1,.375.375v.75a.376.376,0,0,1-.375.375H3v6a4.5,4.5,0,0,0,9,0h6a4.5,4.5,0,0,0,9,0h2.25a.752.752,0,0,0,.75-.75v-1.5A.752.752,0,0,0,29.25,16.5ZM7.5,21.75A2.25,2.25,0,1,1,9.75,19.5,2.251,2.251,0,0,1,7.5,21.75Zm15,0a2.25,2.25,0,1,1,2.25-2.25A2.251,2.251,0,0,1,22.5,21.75ZM26.25,12H19.5V6.75h2.067l4.683,4.683Z" transform="translate(11.353 14)" fill="#fff"/>
  </g>
</svg>
