<svg xmlns="http://www.w3.org/2000/svg" width="48" height="48" viewBox="0 0 48 48">
  <g id="icon_guaranteed" transform="translate(-1316 -1856)">
    <g id="Elipse_360" data-name="Elipse 360" transform="translate(1316 1856)" fill="none" stroke="#fff" stroke-width="1">
      <circle cx="24" cy="24" r="24" stroke="none"/>
      <circle cx="24" cy="24" r="23.5" fill="none"/>
    </g>
    <g id="ribbon" transform="translate(1303.199 1861.449)">
      <path id="Trazado_2702" data-name="Trazado 2702" d="M44.725,29.211A9.807,9.807,0,1,0,35.1,19.393,9.731,9.731,0,0,0,44.725,29.211Zm0-18.82a9.016,9.016,0,1,1-8.825,9A8.916,8.916,0,0,1,44.725,10.391Z" transform="translate(-7.753 -6.812)" fill="#fff"/>
      <path id="Trazado_2703" data-name="Trazado 2703" d="M44.888,21.259a1.705,1.705,0,0,0,.243-.195,2.057,2.057,0,0,0,.633-1.412,1.155,1.155,0,0,1,.8-1.1,2.017,2.017,0,0,0,1.169-1.023A1.878,1.878,0,0,0,47.81,16a1.181,1.181,0,0,1,.365-1.315,1.975,1.975,0,0,0,.219-2.824,1.175,1.175,0,0,1-.146-1.364,1.883,1.883,0,0,0,.17-1.534,1.943,1.943,0,0,0-1-1.193,1.2,1.2,0,0,1-.633-1.217,1.966,1.966,0,0,0-1.753-2.24,1.141,1.141,0,0,1-1.023-.9,1.892,1.892,0,0,0-.9-1.242,1.984,1.984,0,0,0-1.534-.219,1.181,1.181,0,0,1-1.29-.487A1.983,1.983,0,0,0,39,.611,1.656,1.656,0,0,0,37.51.928a1.171,1.171,0,0,1-1.364.024,1.945,1.945,0,0,0-1.51-.317,1.883,1.883,0,0,0-1.266.877,1.182,1.182,0,0,1-1.266.511,1.992,1.992,0,0,0-1.534.243,1.939,1.939,0,0,0-.877,1.266,1.163,1.163,0,0,1-1,.925,1.959,1.959,0,0,0-1.339.779,2.078,2.078,0,0,0-.365,1.51,1.177,1.177,0,0,1-.584,1.242,1.84,1.84,0,0,0-.95,1.217,1.984,1.984,0,0,0,.219,1.534,1.172,1.172,0,0,1-.1,1.364,2.053,2.053,0,0,0-.463,1.485,1.846,1.846,0,0,0,.755,1.339,1.181,1.181,0,0,1,.39,1.315,1.873,1.873,0,0,0,.122,1.534,2.023,2.023,0,0,0,1.193,1,1.14,1.14,0,0,1,.828,1.071,1.887,1.887,0,0,0,.657,1.388L24.8,33.775l5.113-2,2.751,4.772L36.828,24.23c.1,0,.17.024.268.024h0l4.456,12.272,2.727-4.748,5.138,2ZM27.771,18.021a1.131,1.131,0,0,1-.706-.584,1.22,1.22,0,0,1-.073-.925,1.98,1.98,0,0,0-.657-2.191,1.077,1.077,0,0,1-.438-.8,1.256,1.256,0,0,1,.268-.877,1.981,1.981,0,0,0,.17-2.289,1.119,1.119,0,0,1-.122-.925,1.206,1.206,0,0,1,.56-.73,2,2,0,0,0,1-2.07,1.2,1.2,0,0,1,.219-.9,1.063,1.063,0,0,1,.8-.463A2,2,0,0,0,30.473,3.7a1.185,1.185,0,0,1,.511-.755,1.165,1.165,0,0,1,.9-.146A1.955,1.955,0,0,0,34,1.95a1.166,1.166,0,0,1,1.656-.317,1.976,1.976,0,0,0,2.289-.024,1.167,1.167,0,0,1,1.68.292,1.955,1.955,0,0,0,2.143.8,1.233,1.233,0,0,1,.925.122,1.219,1.219,0,0,1,.536.755,2,2,0,0,0,1.7,1.534,1.161,1.161,0,0,1,.8.438,1.218,1.218,0,0,1,.243.9A1.98,1.98,0,0,0,47.031,8.5a1.131,1.131,0,0,1,.584.706,1.225,1.225,0,0,1-.1.925,1.988,1.988,0,0,0,.243,2.289,1.182,1.182,0,0,1-.146,1.7,1.979,1.979,0,0,0-.609,2.216,1.12,1.12,0,0,1-.049.925,1.168,1.168,0,0,1-.706.609,1.991,1.991,0,0,0-1.364,1.851,1.24,1.24,0,0,1-.365.852,1.154,1.154,0,0,1-.877.317A1.956,1.956,0,0,0,41.7,22.136a1.164,1.164,0,0,1-.657.657,1.117,1.117,0,0,1-.925-.024h0a1.934,1.934,0,0,0-2.24.463,1.105,1.105,0,0,1-.852.365,1.217,1.217,0,0,1-.852-.341,1.95,1.95,0,0,0-1.412-.584,2.076,2.076,0,0,0-.852.195,1.216,1.216,0,0,1-.925.049,1.2,1.2,0,0,1-.657-.633,2,2,0,0,0-1.972-1.193,1.168,1.168,0,0,1-.877-.292,1.115,1.115,0,0,1-.39-.828A1.858,1.858,0,0,0,27.771,18.021Zm4.7,16.63L30.254,30.8,26.09,32.435l3.628-10.762a2.678,2.678,0,0,0,.755.1,1.146,1.146,0,0,1,1.169.706,2.016,2.016,0,0,0,1.12,1.071,1.873,1.873,0,0,0,1.534-.073,1.147,1.147,0,0,1,1.339.243,2.458,2.458,0,0,0,.39.317ZM43.963,30.8l-2.216,3.872L37.9,24.108a2.02,2.02,0,0,0,.657-.463,1.153,1.153,0,0,1,1.339-.268,1.928,1.928,0,0,0,1.558.024,1.872,1.872,0,0,0,1.1-1.1,1.189,1.189,0,0,1,1.144-.73,3.263,3.263,0,0,0,.487-.024l3.945,10.86Z" transform="translate(0)" fill="#fff"/>
      <path id="Trazado_2704" data-name="Trazado 2704" d="M62.435,38.068a.34.34,0,0,1,.1.3l-.4,1.83a.317.317,0,0,0,.47.346l1.632-.94a.367.367,0,0,1,.322,0l1.632.94a.314.314,0,0,0,.47-.346l-.4-1.83a.318.318,0,0,1,.1-.3l1.41-1.261a.334.334,0,0,0-.173-.569l-1.855-.2a.289.289,0,0,1-.272-.2l-.767-1.706a.33.33,0,0,0-.594,0l-.767,1.706a.383.383,0,0,1-.272.2l-1.855.2a.323.323,0,0,0-.173.569Z" transform="translate(-27.389 -25.295)" fill="#fff"/>
    </g>
  </g>
</svg>
