<svg xmlns="http://www.w3.org/2000/svg" width="48" height="48" viewBox="0 0 48 48">
  <g id="icon_secure" transform="translate(-1469 -1856)">
    <g id="Elipse_361" data-name="Elipse 361" transform="translate(1469 1856)" fill="none" stroke="#fff" stroke-width="1">
      <circle cx="24" cy="24" r="24" stroke="none"/>
      <circle cx="24" cy="24" r="23.5" fill="none"/>
    </g>
    <g id="secure" transform="translate(1469.213 1841.619)">
      <path id="Trazado_2700" data-name="Trazado 2700" d="M45.973,76H67.2a1.788,1.788,0,0,0,1.773-1.773V58.757A1.788,1.788,0,0,0,67.2,56.984H66.4V53a5,5,0,0,0-5-5H51.976a5,5,0,0,0-5,5v3.988H45.973A1.788,1.788,0,0,0,44.2,58.757v15.43A1.8,1.8,0,0,0,45.973,76Zm21.836-2.7-1.491,1.491H63.74l3.545-3.545h.564V73.3Zm-5.761,1.491H59.469l3.545-3.545h2.578Zm-4.271,0H55.2l3.545-3.545h2.578Zm-4.271,0H50.928l3.545-3.545h2.578Zm-4.27,0H46.658L50.2,71.246h2.578Zm-3.827-.443c0-.04-.04-.121-.04-.161V71.81l.564-.564h2.578Zm2.74-21.393a3.852,3.852,0,0,1,3.827-3.827H61.4a3.852,3.852,0,0,1,3.827,3.827v3.988H48.148Zm-2.176,5.2H67.2a.62.62,0,0,1,.6.6V70.078H45.368V58.757A.593.593,0,0,1,45.973,58.152Z" transform="translate(-32.414 -23.619)" fill="#fff"/>
      <path id="Trazado_2701" data-name="Trazado 2701" d="M72.318,85.654V87.41h1.225V85.654a1.4,1.4,0,0,0,.817-1.266,1.388,1.388,0,0,0-2.777,0A1.23,1.23,0,0,0,72.318,85.654Z" transform="translate(-48.777 -44.835)" fill="#fff"/>
    </g>
  </g>
</svg>
